 <svg version="1.0" xmlns="http://www.w3.org/2000/svg" width="700.000000pt" height="676.000000pt" viewBox="0 0 700.000000 676.000000" preserveAspectRatio="xMidYMid meet">
<metadata>
Created by potrace 1.12, written by Peter Selinger 2001-2015
</metadata>
<g transform="translate(0.000000,676.000000) scale(0.100000,-0.100000)" fill="#000000" stroke="none">
<path d="M3310 5246 c-138 -30 -171 -41 -217 -78 -21 -16 -60 -41 -88 -55 -74
-38 -111 -69 -163 -137 -25 -34 -60 -75 -77 -92 -17 -17 -41 -59 -54 -92 -24
-67 -96 -170 -137 -197 -21 -14 -39 -16 -88 -11 -53 6 -79 2 -196 -32 -178
-52 -172 -49 -275 -131 -79 -62 -95 -81 -142 -163 -94 -163 -88 -142 -88 -348
l0 -185 29 -50 c16 -27 48 -85 70 -127 28 -51 55 -87 81 -106 22 -16 58 -47
81 -69 28 -27 59 -44 100 -56 32 -10 110 -34 173 -54 l114 -36 411 1 c448 2
495 -2 590 -50 85 -43 144 -38 246 21 l45 26 415 1 c413 1 458 4 547 38 21 8
78 26 126 41 72 21 97 34 140 73 29 26 66 57 82 69 41 28 149 205 171 278 14
44 18 93 18 185 0 154 -15 209 -92 338 -44 72 -75 110 -140 167 -77 68 -161
115 -206 115 -7 0 -55 14 -107 30 -81 27 -103 30 -164 25 -63 -5 -73 -4 -97
17 -54 46 -108 124 -128 183 -15 46 -40 84 -100 156 -97 114 -118 132 -195
170 -33 16 -73 43 -90 59 -39 38 -57 44 -217 74 -161 31 -238 31 -378 2z m281
-762 c52 -26 54 -33 60 -253 7 -224 14 -254 61 -270 28 -10 33 -5 186 146 158
157 199 190 260 211 46 16 77 -1 97 -51 29 -73 25 -78 -271 -374 -150 -151
-286 -290 -301 -310 -44 -58 -100 -93 -146 -93 -54 0 -76 19 -404 346 -220
220 -274 279 -282 311 -15 52 -14 75 4 100 25 36 65 43 123 24 42 -15 73 -39
167 -132 207 -206 236 -225 269 -177 13 18 16 54 17 168 0 80 4 187 7 238 7
87 9 96 36 118 30 27 62 26 117 -2z"></path>
<path d="M3186 2930 l-638 -5 -44 -48 c-52 -58 -58 -99 -20 -144 24 -29 54
-44 150 -78 40 -15 51 -24 66 -59 10 -22 21 -70 25 -106 11 -111 35 -231 65
-325 29 -91 44 -180 55 -315 15 -181 36 -241 105 -304 75 -67 62 -66 550 -65
505 0 489 -2 569 84 58 64 63 82 90 310 11 94 32 215 47 270 48 183 53 209 64
310 18 160 35 186 144 215 69 19 126 75 126 123 0 42 -50 107 -98 126 -35 14
-437 17 -1256 11z"></path>
</g>
</svg>